<?xml version="1.0" standalone="no"?>
<!DOCTYPE svg PUBLIC "-//W3C//DTD SVG 20010904//EN"
 "http://www.w3.org/TR/2001/REC-SVG-20010904/DTD/svg10.dtd">
<svg version="1.0" xmlns="http://www.w3.org/2000/svg"
 width="2000.000000pt" height="2000.000000pt" viewBox="0 0 2000.000000 2000.000000"
 preserveAspectRatio="xMidYMid meet">
<metadata>
Created by potrace 1.11, written by Peter Selinger 2001-2013
</metadata>
<g transform="translate(0.000000,2000.000000) scale(0.100000,-0.100000)"
fill="#000000" stroke="none">
<path d="M8335 16506 c-17 -19 -44 -60 -60 -92 l-28 -58 -16 24 c-37 57 -113
140 -129 141 -32 3 -200 -8 -239 -15 -10 -2 -44 -7 -77 -10 -32 -4 -128 -18
-214 -32 -86 -13 -157 -24 -158 -24 -1 0 -6 -13 -12 -28 -11 -33 -12 -32 93
-147 43 -47 95 -107 115 -134 36 -47 109 -180 130 -236 10 -27 8 -26 -37 16
-72 67 -205 168 -327 248 -60 39 -110 71 -112 71 -1 0 -46 27 -99 60 -53 33
-104 60 -114 60 -14 0 -159 -38 -209 -55 -7 -3 -14 -5 -17 -5 -12 -2 -258 -91
-318 -115 -51 -21 -69 -33 -73 -51 -9 -34 5 -47 120 -111 471 -263 737 -480
1011 -828 22 -27 43 -54 48 -60 41 -52 117 -160 117 -167 0 -4 -6 -8 -14 -8
-18 0 -184 -52 -268 -83 l-66 -26 -55 52 c-47 45 -240 224 -271 252 -53 47
-172 149 -221 190 -33 27 -69 57 -80 67 -25 22 -222 176 -259 203 -15 11 -47
34 -70 51 -22 16 -90 63 -150 103 -503 335 -652 218 -471 -369 20 -63 40 -124
45 -135 4 -11 13 -33 18 -50 6 -16 19 -55 30 -85 l20 -54 -23 -46 c-26 -52
-61 -157 -70 -209 -3 -19 -7 -37 -9 -40 -2 -3 -7 -26 -10 -51 -3 -25 -8 -54
-10 -66 -14 -70 -21 -207 -21 -404 0 -300 8 -390 55 -609 l18 -84 -55 -131
c-148 -358 -306 -926 -387 -1401 -5 -30 -21 -110 -30 -151 -2 -12 -7 -38 -10
-58 -18 -110 -90 -261 -202 -421 -185 -264 -240 -384 -268 -575 -19 -134 -13
-250 20 -347 119 -357 517 -659 1139 -865 83 -27 362 -99 431 -111 16 -3 81
-15 145 -26 63 -11 138 -23 165 -26 28 -3 59 -7 70 -9 10 -2 53 -7 94 -11 41
-3 86 -8 100 -10 23 -4 159 -13 295 -21 33 -1 126 -3 206 -4 l146 -1 108 -75
c60 -41 122 -85 137 -99 33 -30 58 -85 58 -130 0 -31 -2 -32 -47 -38 -59 -8
-71 -11 -106 -25 -16 -7 -31 -12 -33 -12 -16 0 -127 -86 -161 -124 -82 -93
-108 -174 -99 -313 6 -95 4 -110 -19 -174 -70 -196 -108 -425 -107 -656 1
-100 9 -240 16 -280 3 -11 7 -36 10 -54 3 -19 8 -51 11 -73 11 -66 14 -78 45
-188 39 -135 84 -249 154 -381 l54 -104 7 -194 c4 -107 9 -225 11 -264 3 -90
3 -941 -1 -1020 -2 -33 -6 -134 -9 -225 -4 -91 -9 -183 -11 -205 -2 -22 -7
-83 -10 -135 -13 -210 -15 -231 -30 -367 -3 -27 -7 -68 -10 -93 -9 -89 -17
-166 -20 -197 -3 -25 2 -37 20 -51 13 -10 23 -27 22 -36 -3 -26 136 -67 283
-84 131 -14 292 -6 420 22 175 39 168 36 190 80 13 28 21 71 25 131 11 206 21
349 30 440 8 80 13 137 20 215 4 36 8 76 10 90 3 14 11 84 20 155 8 72 17 141
19 155 8 51 19 126 21 145 1 11 5 38 9 60 3 22 9 58 12 80 3 22 12 78 19 125
8 47 17 103 20 125 3 22 8 56 11 75 4 19 8 45 9 57 2 12 6 34 9 50 3 15 8 48
11 73 9 68 15 81 33 76 9 -3 36 -10 58 -15 l41 -11 11 -73 c31 -200 45 -350
59 -617 8 -155 9 -1087 1 -1310 l-4 -135 34 -33 c36 -34 70 -52 162 -82 111
-37 272 -42 443 -14 154 25 321 80 341 112 3 5 8 72 11 148 3 76 7 168 10 204
3 36 7 108 10 160 3 52 8 131 10 175 3 44 8 112 10 150 9 124 15 228 20 315 3
47 7 117 10 155 2 39 7 124 10 190 4 66 8 147 10 180 2 33 7 135 11 226 11
267 11 284 13 291 0 4 11 10 23 14 22 7 476 225 513 246 11 7 55 31 97 54 l77
42 26 -53 c46 -95 135 -159 289 -210 67 -21 98 -28 221 -50 17 -2 41 -7 55
-10 13 -2 42 -7 65 -10 148 -21 166 -27 177 -54 13 -32 15 -340 4 -671 -14
-411 -14 -429 -16 -613 -1 -152 1 -182 15 -197 15 -17 36 -22 145 -38 55 -8
320 -8 375 0 132 20 249 58 265 88 11 20 16 65 25 220 3 58 8 128 10 155 3 44
10 142 20 320 2 28 6 109 10 180 3 72 8 157 10 190 6 93 18 356 18 397 l-1 36
40 -14 c67 -23 174 -84 203 -114 17 -18 29 -42 30 -62 4 -55 16 -210 21 -253
2 -22 6 -65 9 -95 3 -30 7 -71 10 -90 3 -19 7 -57 10 -85 10 -91 15 -140 20
-170 7 -46 31 -259 41 -365 3 -30 7 -64 9 -75 2 -11 7 -70 11 -130 4 -61 11
-118 15 -127 11 -20 105 -66 174 -84 51 -14 172 -27 255 -28 126 -1 325 34
384 67 21 11 27 13 46 16 23 3 42 54 48 128 11 143 3 529 -12 623 -2 14 -7 59
-11 100 -4 41 -8 86 -10 100 -2 14 -6 50 -10 80 -3 30 -8 66 -10 80 -2 14 -9
63 -15 110 -11 85 -15 117 -26 188 -9 63 -12 85 -20 137 -3 28 -8 59 -10 69
-4 23 -52 364 -59 421 -7 61 -14 142 -19 222 -11 173 -87 226 -381 268 -22 4
-48 8 -57 11 -9 3 -27 7 -39 9 -60 12 -119 39 -152 70 -72 68 -70 50 -72 637
-2 289 -6 532 -10 538 -18 28 102 -58 160 -115 41 -40 163 -195 260 -330 256
-356 396 -515 571 -646 176 -131 395 -212 689 -253 94 -13 322 -14 405 -2 19
3 51 8 70 11 227 34 497 147 740 308 278 184 446 362 598 632 44 78 67 129
127 270 45 106 107 340 129 487 13 88 17 247 6 267 -22 42 -64 24 -160 -69
-47 -46 -356 -260 -374 -260 -3 0 2 15 12 33 52 94 103 268 85 295 -15 23 -73
20 -109 -5 -59 -42 -313 -128 -437 -148 -12 -2 -40 -7 -62 -10 -22 -4 -89 -8
-150 -10 -232 -5 -322 38 -837 401 -371 261 -477 327 -632 390 -33 14 -70 29
-81 33 -11 5 -31 13 -45 19 -33 13 -206 61 -245 68 -16 3 -61 11 -100 19 -141
28 -278 40 -427 38 -54 -1 -98 1 -98 4 0 10 70 71 167 144 50 39 94 77 97 85
7 19 -9 60 -26 66 -20 7 -147 3 -203 -6 -52 -8 -193 -52 -258 -80 -322 -139
-623 -442 -707 -711 -7 -22 -15 -43 -19 -47 -3 -4 -31 0 -61 8 -215 56 -493
63 -780 19 -14 -2 -43 -6 -65 -9 -22 -3 -137 -19 -255 -36 -269 -40 -312 -46
-560 -76 -46 -6 -181 -6 -212 -1 -29 5 -33 15 -34 90 -2 125 -52 256 -122 319
-21 19 -42 43 -45 52 -4 9 -10 90 -13 179 l-6 162 42 80 c47 90 266 425 278
425 4 0 23 -30 42 -66 36 -68 64 -104 80 -104 14 0 182 45 255 68 l59 19 33
-43 c18 -23 33 -47 33 -53 0 -5 4 -11 8 -13 21 -9 100 -165 138 -272 25 -72
46 -96 76 -88 18 4 267 256 371 374 l59 67 -17 57 c-9 31 -29 81 -45 110 -16
30 -25 56 -21 58 4 3 25 1 47 -4 21 -5 50 -11 64 -13 14 -3 38 -10 53 -16 47
-18 70 -13 98 22 89 111 201 272 263 374 44 74 42 102 -12 134 -20 11 -77 51
-127 88 -49 37 -101 75 -115 84 -28 19 -20 21 47 7 167 -33 322 -51 341 -41
23 12 55 75 112 220 39 98 97 271 105 311 2 12 7 30 10 40 6 20 7 24 29 125 8
39 18 86 21 105 3 19 8 42 10 50 2 8 7 40 11 70 3 30 8 66 9 80 23 167 23 621
1 735 -2 11 -7 49 -10 85 -6 56 -16 123 -30 195 -2 11 -7 40 -11 65 -4 25 -18
95 -32 155 -14 61 -26 117 -28 126 -19 92 -151 520 -181 586 -8 17 -14 34 -14
37 0 7 -64 174 -85 221 -7 17 -32 75 -55 130 -64 153 -189 397 -270 529 -65
106 -204 312 -220 326 -3 3 -24 28 -45 55 -22 28 -42 52 -45 55 -3 3 -20 23
-39 45 -153 182 -420 417 -636 562 -244 163 -579 323 -874 417 -62 20 -123 38
-135 40 -11 2 -55 13 -96 25 -77 20 -199 46 -267 57 -21 3 -45 7 -53 9 -20 6
-222 34 -285 39 -92 9 -249 17 -399 21 l-149 4 -32 -33z"/>
</g>
</svg>
