<svg width="720" height="300" viewBox="0 0 720 300" xmlns="http://www.w3.org/2000/svg" xmlns:xlink="http://www.w3.org/1999/xlink"><title>background-desert-full</title><defs><path id="a" d="M0 0h720v300H0z"/><path d="M0 60.74C107.66 50.616 157.307.266 172.71.266c21.573 0 160.308 71.625 289.79 71.625 111.237 0 180.5 10.75 257.5-2.75.667 23.33.667 60.83 0 112.5H0V60.739z" id="c"/><path d="M0 83.04c88.363-9.718 222.328-8.901 295-9.79C433 71.562 542.52.334 565.32.334 582.998.334 667.51 46.988 720 40.75c.667 23.33.667 63.83 0 121.5H0V83.04z" id="e"/><path d="M67 6.719c88.363-9.719 238.316-6.19 301.479 0C405.34 10.332 569.504 33.6 637.907 30 694.121 27.04 738.654 21 787 12.837c.667 23.33.667 94.385 0 213.163H67V6.719z" id="g"/></defs><g fill="none" fill-rule="evenodd"><mask id="b" fill="#fff"><use xlink:href="#a"/></mask><use fill="#FAD881" xlink:href="#a"/><path d="M0 123.97c310.081 0 483-76.812 720-100.97 1 22.52 0 46.993 1 71.932l-.859-.135.056 1.89c.66 24.128-.12 66.688.803 89.705-258.532 90.204-410.919-58.14-721-19.528V123.97zm182.77 16.117l-4.486.733 12.037.1c195.478 1.576 336.402-.355 520.607-47.518v-.01c-155.345-22.522-314.9 11.548-521.871 45.661l-6.287 1.034z" fill="#FAE093" mask="url(#b)"/><path d="M720-101.518v30.788c1 22.572 0 45.264 1 70.26C466.063 10.53 283-28.574 0 53v-70.75c273.852-57.857 443.764 36.135 694.586-44.321l-.004-.015C334.152-99.87 114.942-63.804 0-97.166v-31.256c184.96-40.605 643 63.325 720 26.904z" fill="#FFCB75" mask="url(#b)"/><circle fill="#FFF" opacity=".2" mask="url(#b)" cx="463" cy="51" r="40"/><circle fill="#FFF" opacity=".4" mask="url(#b)" cx="463" cy="51" r="30"/><circle fill="#FFF" mask="url(#b)" cx="463" cy="52" r="20"/><g mask="url(#b)"><path fill="#FCC883" d="M53.75 91L-67 186.5h240.935z"/><path fill="#F9B669" d="M51.75 98l-112.955 95.5H113l-9.875-28.5-31.46-9 11.678-18.25L65 134l-1.341-17.433z"/></g><g mask="url(#b)"><path fill="#F9B669" d="M612.126 47L431 190.25h361.403z"/><path fill="#F7A957" d="M614.566 55.5l153.16 145.25H522.693l-32.795-21.148L522.692 136h40.292v-33.035h21.71L611.702 83z"/></g><g mask="url(#b)"><path fill="#FBC27A" d="M462.75 116L342 211.5h240.935z"/><path fill="#F7A957" d="M464.044 123L577 218.5H402.795L404 179.602 434 190l10.13-35h18.338l-11.673-19z"/></g><g mask="url(#b)"><g transform="translate(0 118.358)"><mask id="d" fill="#fff"><use xlink:href="#c"/></mask><use fill="#E08044" xlink:href="#c"/><path d="M172.71.267C139.479-8.041 95.973 40.892 0 52.392v80.25c0 5.778 45.988-21.412 89.468-34.744 22.644-6.944 22.644-39.02 27.273-45.506 15.426-21.616 42.682-3.75 55.97-20.75 15.056-19.263-17.448-19.25 0-31.375z" fill="#CF693B" mask="url(#d)"/><path d="M223.891 16.142c-9.304 24.166-42.938 57.966-100.902 101.398M253.442 26.142c-9.304 24.166-28.777 59.333-58.419 105.499M311.111 31.642c-9.304 24.166-51.224 49.447-125.76 75.843M353.007 35.27c-9.304 24.166-40.277 48.243-92.919 72.23" stroke="#CF693B" stroke-width="3" mask="url(#d)"/></g><g transform="translate(0 137.75)"><mask id="f" fill="#fff"><use xlink:href="#e"/></mask><use fill="#E89755" xlink:href="#e"/><path d="M606.433 12.608c11.86 25.206-17.158 52.052-87.053 80.537M623.433 19.608c11.86 25.206 2.423 56.086-28.309 92.641M701.1 33c0 21.953-24.096 44.036-72.288 66.25" stroke="#E08044" stroke-width="2" mask="url(#f)"/><path d="M320.43 73.95C437.36 40.995 466.799 31 562.246 0 612 56.08 441 35.786 431 81.292 307 114.16 320.43 89.7 320.43 73.95z" fill="#D7743D" mask="url(#f)"/></g><g transform="translate(-67 190)"><mask id="h" fill="#fff"><use xlink:href="#g"/></mask><use fill="#E89755" xlink:href="#g"/><path d="M67 101.146c277.931-52.341 466.063 35.234 720-.341v24.133c-270 22.477-498.143-27.133-720 49.847v-73.64z" fill="#E08044" mask="url(#h)"/><path d="M787 12.837c0 20.653.5-2.27.5 20.163-98.32 16.411-213.545 7.132-289.5-3.958C387.004 12.837 272.603 1.918 240.44 0 403.353-7 607.347 33 787 12.837z" fill="#CF693B" mask="url(#h)"/></g><ellipse fill="#CF693B" transform="rotate(-5 2778.67 -3367.024)" cx="60.948" cy="13.8" rx="60" ry="8" opacity=".3"/></g></g></svg>