<svg width="720" height="300" viewBox="0 0 720 300" xmlns="http://www.w3.org/2000/svg" xmlns:xlink="http://www.w3.org/1999/xlink"><title>background-forest-master-full</title><defs><linearGradient x1="50%" y1="0%" x2="50%" y2="100%" id="b"><stop stop-color="#F9FFD8" offset="0%"/><stop stop-color="#D5FF00" offset="100%"/></linearGradient><path id="a" d="M0 0h720v300H0z"/><linearGradient x1="48.342%" y1="0%" x2="55.74%" y2="95.17%" id="d"><stop stop-color="#FFF" offset="0%"/><stop stop-color="#FFF" stop-opacity="0" offset="100%"/></linearGradient><linearGradient x1="49.498%" y1="0%" x2="51.738%" y2="95.17%" id="e"><stop stop-color="#FFF" offset="0%"/><stop stop-color="#FFF" stop-opacity="0" offset="100%"/></linearGradient><path d="M0 6.719C88.363-3 238.316.529 301.479 6.719 338.34 10.332 502.504 33.6 570.907 30 627.121 27.04 671.654 21 720 12.837c.667 23.33.667 94.718 0 214.163H0V6.719z" id="f"/></defs><g fill="none" fill-rule="evenodd"><mask id="c" fill="#fff"><use xlink:href="#a"/></mask><use fill="#EAFA98" xlink:href="#a"/><use fill="url(#b)" xlink:href="#a"/><path d="M444.11 203.898c15.636-39.853 10.325-170.156 10.325-211.974 5.792-10.66 11.868.528 23.81-9.924 1.712 69.41-10.1 147.006 6.312 208.623 5.563 5.169-43.175 14.45-40.446 13.275z" fill="#D5F531" mask="url(#c)"/><path d="M594.095 188.425c7.653-41.482 9.497-152.193 9.497-193.904C609.324-16.111 620.81-22.575 632.626-33c1.693 69.232-7.249 159.967 8.991 221.425 5.505 5.156-50.222 1.173-47.522 0z" fill="#D5F531" opacity=".5" mask="url(#c)"/><path d="M364.152 182.036c3.697-40.893 6.141-256.37 6.141-298.036h17.155c1.951 57.785-4.745 232.607 1.951 295.114 5.44 5.15-27.915 4.093-25.247 2.922z" fill="#D5F531" opacity=".75" mask="url(#c)"/><path d="M18.221-20c.715 29.313-.234 62.44-.339 95.565.748 3.313 2.274 9.943 6.031 9.943 7.366 0 25.881-37.369 29.265-64.937 2.433-3.484 6.424-3.326 6.822 0 0 7.75-12.318 54.497-41.686 94.21.928 31.417 3.574 61.416 10.198 86.555 5.493 5.158-56.171 3.715-53.477 2.542 9.197-23.695 12.481-74.033 13.634-119.682-3.729-12.826-24.09-32.063-22.59-58.051.433-2.55 6.38.37 6.592 1.035-.259 7.63 6.64 30.918 12.74 30.918 1.38 0 3.316-3.958 3.784-6.993.136-17.626.057-32.96.057-43.569C-5.03-3.102 6.43-9.569 18.222-20z" fill="#D5F531" mask="url(#c)"/><path d="M235.42 172.43c-4.517-43.249 3.188-116.325 3.188-157.96C244.411 3.858 256.037-2.594 268-13c-10.355 66.197-19.741 124.084-3.3 185.43 5.572 5.146-32.014 1.17-29.28 0z" fill="#D5F531" opacity=".5" mask="url(#c)"/><path d="M290.115 181.52c15.618-39.708 14.384-255.855 14.384-297.52h18.833c1.71 69.156-5.671 231.226 5.208 292.793 5.557 5.15-41.15 5.897-38.425 4.726z" fill="#C4E423" opacity=".5" mask="url(#c)"/><path d="M389.086 202.878c15.463-39.773 14.601-165.12 14.601-206.854C409.416-14.614 419.82-2.57 431.63-13c1.693 69.27-5.208 151.844 11.024 213.336 5.502 5.158-56.266 3.715-53.567 2.542z" fill="#C1E01E" opacity=".2" mask="url(#c)"/><path d="M644.086 196.878c15.463-39.773 14.24-154.608 14.24-196.342 5.73-10.638 17.208-17.105 29.019-27.536 1.692 69.27-5.924 159.843 10.308 221.336 5.502 5.158-56.266 3.715-53.567 2.542z" fill="#D5F531" mask="url(#c)"/><path d="M141.131 195.968C156.69 156.14 155.46 41.15 155.46-.64c5.764-10.653 5.901-11.915 17.784-22.36 1.703 69.364 0 116.595 0 183.954 5.535 5.165-34.827 36.188-32.112 35.014z" fill="#C9EB1B" mask="url(#c)"/><path d="M58.131 195.968C73.69 156.14 72.46 41.15 72.46-.64 78.223-11.293 78.36-12.555 90.243-23c1.703 69.364 0 116.595 0 183.954 5.535 5.165-34.827 36.188-32.112 35.014z" fill="#C9EB1B" mask="url(#c)" transform="matrix(-1 0 0 1 149 0)"/><path d="M553.916 187.642c-2.06-41.685 0-149.708 0-191.434 5.707-10.636 14.482 6.22 26.25-4.208-2.786 37.377-10.857 128.516 5.314 189.997 5.481 5.157-34.253 6.817-31.564 5.645z" fill="#C9EB1B" mask="url(#c)"/><path d="M0 147.646c146.695-9.675 413.76 26.212 464.639 32.282 100.621 12.003 84.124 12.003 255.86 12.003.668 23.385.668 59.408 0 108.069H0V147.646z" fill="#619F29" mask="url(#c)"/><path d="M0 147.642c46.233-3.036 104.397-1.576 164 2.041-3.554 4.96-54.683 4.96-98.292 9.795C39.621 162.37 12.704 172.565 0 147.642z" fill="#538E1E" mask="url(#c)"/><g mask="url(#c)"><path d="M122.336-50c.316 13.04.278 26.898.143 41.18.87 2.718 2.251 5.421 4.529 5.421 6.686 0 10.006-10.551-4.88 26.463-.444 46.612.033 94.578 9.647 131.308 5.038 4.763-23.106 11.672-36.01 12.103-15.426.515-15.51-8.672-13.04-9.755C91.1 135.002 94.13 89.046 95.207 47.145 93.62 35.406 77.988 18.016 79.425-7.068c.398-2.356 8.22-2.866 8.414-2.252-.237 7.05 7.188 26.773 7.497 23.931.13-1.184.263-1.755.397-1.825.096-15.065.032-28.143.032-37.36 5.246-9.823 15.756-15.794 26.571-25.426z" fill="#744D26"/><path d="M111.416-40.998c0 23.109-5.416 181.745-3.338 205.973-4.567.837-8.956 1.388-12.313 1.5-15.426.515-15.51-8.672-13.04-9.755C91.1 135.002 94.13 89.046 95.207 47.145 93.62 35.406 77.988 18.016 79.425-7.068c.398-2.356 8.22-2.866 8.414-2.252-.237 7.05 7.188 26.773 7.497 23.931.13-1.184.263-1.755.397-1.825.096-15.065.032-28.143.032-37.36 3.43-6.421 9.108-11.197 15.651-16.424z" fill="#5C3D1E"/></g><g mask="url(#c)"><path d="M275.667-36c.31 12.59.476 28.356.431 45.63.344 1.726 1.162 4.06 3.462 4.06 5.524 0 9.947-6.333 11.904-17.509 1.824-2.596 5.238-3.25 5.536-.771 0 5.762 1.568 12.872-21.104 38.9-.675 48.331-3.05 101.815-8.408 129.783-6.456 1.181-4.164 4.907-14.715 4.907-7.372 0-10.947-.348-16.5-1.806 8.327-21.319 13.815-90.37 16.24-139.04-5.331-8.617-12.222-19.505-11.454-32.744.325-1.9 4.785.276 4.944.771-.158 4.64 3.255 17.043 7.002 21.456.622-14.296.936-26.05.936-33.115 4.29-7.928 12.883-12.748 21.726-20.522z" fill="#744D26"/><path d="M265.288-27.584c2.967 18.711-14.507 175.08-12.515 196.584-7.372 0-10.947-.348-16.5-1.806 8.327-21.319 13.815-90.37 16.24-139.04-5.331-8.617-12.222-19.505-11.454-32.744.325-1.9 4.785.276 4.944.771-.158 4.64 3.255 17.043 7.002 21.456.622-14.297.936-26.05.936-33.115 2.547-4.708 6.613-8.32 11.347-12.106zm12.653 46.808c-1.657-.31-2.287-6.692-1.657-8.715.704 2.03 1.836 3.182 3.276 3.182 5.524 0 9.947-6.334 11.904-17.51.701-.999 1.638-1.71 2.543-2.066 1.446-.57-6.326 26.931-16.066 25.109z" fill="#5C3D1E"/></g><path d="M0 220.79c88.425-9.718 246.048 1.965 295.205-9.79 78.691-18.818 253.558-56 425.295-56 .667 23.33.667 71.664 0 145H0v-79.21z" fill="#86B72F" mask="url(#c)"/><path fill="url(#d)" mask="url(#c)" transform="matrix(-1 0 0 1 948 0)" d="M425-17l24.512 216.687L523 207 451.372-14.292z"/><path d="M550 165.457C604.51 159.187 662.432 155 720 155v30.872c-15.166 8.567-41.696-3.571-91.043 0-35.873 2.596-69.742-13.026-78.957-20.415z" fill="#7AAB23" mask="url(#c)"/><path fill="url(#d)" opacity=".5" mask="url(#c)" d="M41-8l24.512 216.687L139 216 67.372-5.292z"/><path fill="url(#d)" mask="url(#c)" transform="matrix(-1 0 0 1 1236 0)" d="M569-23l24.512 216.687L667 201 595.372-20.292z"/><path fill="url(#e)" opacity=".5" mask="url(#c)" d="M201-17l14.522 213.048L253 199 219.127-17z"/><g mask="url(#c)"><g transform="translate(0 190)"><mask id="g" fill="#fff"><use xlink:href="#f"/></mask><use fill="#AFDC60" xlink:href="#f"/><path d="M69-17.035C25.692-16.266 30.999 6.772 75.5 11c15.406 1.464 22.047 20.525 41.95 9.79 10.58-5.706 26.13 6.71 35.3 11.225 7.73 3.806 25.997-1.358 39.225 1.985 17.518 4.428 14.834 13.79 43.025 13.79 26.39 0 7.718-18.6 30.703-20.29 16.559-1.218 13.903 2.53 27.493 2.53 13.559 0 3.351-5.134 24.171-8.295C343.043 17.836 334.524 23 352.923 23c20.714 0 56.636-13.954 29.494-17.45C272.03-8.665 112.308-17.803 69-17.034zM698.547 6.098C732 9.01 711.152 29.749 709.02 33.6 698.547 52.538 675.455 62 652.387 62c-20.918 0-43.525-2.96-62.955 4.502-9.163 3.519-34.377-6.503-45.24-6.503-27.367 0-32.244-22.499-52.98-19.59-30.512 4.279-35.474-15.088-24.22-22.212 6.082-3.85 161.33-18.212 231.555-12.1zM127.842 144.153c-33.454-2.912-12.606-23.651-10.475-27.504 10.475-18.936 33.567-28.398 56.635-28.398 20.918 0 43.525 2.96 62.955-4.502 9.163-3.519 34.377 6.503 45.24 6.503 27.367 0 32.244 22.499 52.979 19.59 30.512-4.279 40.098 16.246 24.222 22.212-17.398 6.536-5.905 30.55-36.503 33.25-26.145 2.308-67.601-21.15-104.895-13.152-37.294 8-67.487-6.025-90.158-7.999z" fill="#000" opacity=".2" style="mix-blend-mode:overlay" mask="url(#g)"/></g></g><ellipse fill="#000" opacity=".25" style="mix-blend-mode:overlay" mask="url(#c)" transform="rotate(-5 361.948 236.8)" cx="361.948" cy="236.8" rx="60" ry="8"/><g mask="url(#c)" stroke="#8BB442" stroke-linecap="round" stroke-linejoin="round" stroke-width="1.5"><path d="M275 240s1.534-3.791 1.919-5.52c.337 1.379 1.668 3.21 1.668 3.21s1.955-1.29 2.601-2.368c.39.887.99 2.167 1.362 2.925.517-1.112 1.554-3.067 1.785-4.247.431 1.099.976 2.738 1.665 3.69M385.676 251.055c.604-1.457 1.324-4.627 1.759-6.529.708 1.65 1.693 2.644 2.84 3.265 1.18-.873 2.473-2.029 3.182-3.265.187 1.391.771 3.898 1.83 5.251 1.023-.402 2.112-1.353 2.93-1.986.54.633 1.159 1.584 1.953 1.986M368.173 222.68s1.016-1.052 1.456-1.89c.272.298.755.748 1.185.945.617-.342 1.395-.547 1.76-.945.511.603.511 1.295 1.063 1.89M437.564 240.932c1.005-1.426 1.147-3.774 1.386-4.97.198 1.477 1.45 3.552 1.45 3.552s2.159-2.17 2.742-4.002c0 1.288.303 3.994.856 4.871.702-.619 1.56-2.262 1.56-2.262s.781 1.806 1.05 2.182c.329-.225 1.257-1.504 1.257-1.504s.825 1.062 1.46 1.584M298.736 280.872c1.674-1.825 3.424-3.48 4.042-4.82.828 1.065 2.274 1.843 3.268 2.41 1.505-1.74 2.403-4.78 2.851-6.27.733 1.4 1.051 3.049 2.73 3.86.658-.387 1.317-.974 2.1-1.527 1.748 1.368 3.003 2.866 5.576 3.937M252.895 205.55c1.009-.807 2.103-1.839 2.428-2.713.566.784 1.415 2.27 3.314 2.714 1.069-.443 1.884-.808 2.49-1.357.7.55 1.125 1.105 2.07 1.357M464.316 276.532c1.523-1.182 2.833-2.643 3.596-4.34.96.888 1.742 2.17 3.256 2.808 1.841-1.11 3.201-1.92 4.068-2.808 1.57 1.376 3.109 3.616 5.764 4.34 1.82-.655 2.999-1.182 4.977-2.17 1.901.638 3.008 1.8 5.236 2.17M558.83 247.938l3.991-5.4 1.881 2.7h3.21l2.995 2.7M620.677 281l2.96-2.751 1.363 1.376 2.91-1.376 2.136 2.751 2.875-1.375 3.88 2.776M663.769 238.83l3.87-2.968v2.968l2.143-1.484 1.872 1.484M37 271.193L41.078 267v4.193l3.774-1.48V272l3.782-2.5L50 271.193M109 265l2.305-5 5.663 5 2.166-5 2.866 5M173 234c0-1.533 1-2.299 3-2.299l2.34 1.15 3.09-2.82 2.024 2.82M12.667 213.928l2.01-2.928 2.53 1.5 2.719-1.5 2.293 1.464"/></g><g mask="url(#c)"><g transform="translate(147 -139)"><path d="M79.24.978c.974 39.892 1.387 95.796 1.948 151.832 1.436 3.502 3.517 6.468 6.596 6.468 11.057 0 38.847-56.066 43.927-97.43 3.651-5.226 9.642-4.989 10.239 0 0 11.42-17.836 79.283-60.235 138.152.926 72.539 2.46 137.454 6.24 158-19.444 1-22.985-5.072-33.085-5.072-13.65 0-22.773-1.23-24.875-1.874 4.714-24.306 5.823-110.457 5.97-188.202a.401.401 0 01-.207-.03c0-19.06-37.258-49.701-34.782-92.61.65-3.826 9.577.556 9.895 1.553-.388 11.448 9.966 46.388 19.124 46.388 2.17 0 5.257-6.524 5.763-11.139.058-.522.116-.97.174-1.35-.066-26.32-.174-48.758-.174-63.372C44.342 26.332 61.543 16.628 79.241.978z" fill="#744D26"/><path d="M66.438 355.38c-3.877-1.247-7.073-2.45-11.568-2.45-13.65 0-22.773-1.23-24.875-1.873 4.714-24.307 5.823-110.458 5.97-188.203a.401.401 0 01-.207-.03c0-19.06-37.258-49.701-34.782-92.61.65-3.826 9.577.556 9.895 1.553-.388 11.448 9.966 46.388 19.124 46.388 2.17 0 5.257-6.524 5.763-11.139.058-.522.116-.97.174-1.35-.066-26.32-.174-48.758-.174-63.372 4.694-8.727 11.965-15.584 20.484-22.565 7.06-5.786 3.123 292.19 10.196 335.65zm46.36-221.735c5.455-5.34-1.652 10.27-18.656 33.219-4.033 2.145-19.85 24.082-19.4 8.297.379-13.329 1.73-27.511 2.999-33.195.744-3.335 1.918 17.314 10.043 17.314 4.857 0 12.942-10.818 20.914-26.456 4-7.848.566 4.28 4.1.82z" fill="#000" opacity=".2" style="mix-blend-mode:overlay"/><ellipse fill="#3E2308" cx="47" cy="218" rx="5" ry="14"/><path d="M72 308.122c.231 6.617 1.791 15.175 2.817 20.468.598 3.085.061 11.122-1.026 20.462-1.387-8.213-3.593-12.21-3.814-18.563-.255-7.288.89-15.702 2.023-22.367z" fill="#5C3D1E"/></g></g><g mask="url(#c)"><path d="M79-3.974c0 7.209-18.813 40.486-45.099 77.044-3.887 63.83-9.812 136.624-1.826 178.93-7.5 3.918-21.281 8-34.903 14.485-16.754 7.977-16.922-9.394-14.226-10.567C-4.972 224.8-3.087 108.905-2.839 39.912c-7.099-11.535-16.197-26.091-15.177-43.77.434-2.552 6.384.37 6.597 1.034-.135 3.982 4.295 11.043 8.611 16.45-.006-7.194-.02-13.167-.02-17.6 5.723-10.64 27.488 10.434 39.286 0 .27 11.074.047 23.58-.473 37.03 9.047-5.062 23.898-22.747 26.743-45.915C65.162-16.344 78.602-7.3 79-3.974z" fill="#744D26"/><path d="M6.701-3.974c0 8.6-5.199 184.088 0 266.263a191.028 191.028 0 00-9.529 4.196c-16.754 7.977-16.922-9.394-14.226-10.567C-1.607 216.135-2.828 37.77-2.828-3.974c3.072-5.711 7.317-1.412 9.53 0zm63.83-7.629c-.994 3.62-5.938 17.697-18.691 38.113-8.395 13.439-10.375 16.467-14.641 18.501-2.322 1.093-2.542-2.301-2.038-5.03.417-2.262.278-4.522.782-6.902 9.043-5.03 23.936-22.734 26.785-45.938 1.098-1.571 4.434-.595 7.803 1.256z" fill="#5C3D1E"/></g><g mask="url(#c)"><path d="M673.757-47c.55 22.643.602 46.72.5 71.356 7.048-7.028 17.998-18.306 25.942-32.549 3.092-4.416 8.165-4.215 8.67 0v.587c-.013 9.298-.679 16.444-34.79 62.673-.425 61.447-.915 124.114 3.682 174.987 0 7.564 1.204 15.355-16.562 15.946-21.24.706-45.382-7.925-41.98-9.411 14.036-36.273 17.167-121.831 17.82-186.634-8.483-15.999-27.14-37.982-25.508-66.22.554-3.25 8.146.473 8.417 1.32-.33 9.723 8.476 39.4 16.265 39.4.31 0 .64-.155.98-.433.03-14.291-.02-26.695-.02-36.142 7.222-13.475 21.694-21.667 36.584-34.88z" fill="#744D26"/><path d="M673.757-47c.55 22.644.602 46.72.5 71.357 7.047-7.028 17.998-18.306 25.942-32.55 3.092-4.416 8.165-4.215 8.67 0 0 9.603.034 16.065-34.79 63.26-.425 61.447-.915 124.114 3.682 174.987l.003.682c.053 7.343.668 14.69-16.565 15.264 2.145-40.45 4.755-270.628-1.199-279 5.913-11.908 6.872-7.89 13.757-14zm-56.222 30.846c1.928.64 2.282.8 2.413 1.208-.33 9.724 8.476 39.401 16.265 39.401.526 0 .773-.278.978-.423.819.772 0 2.117 0 4.577 0 2.775-2.94 4.556-9.923-7.238-7.098-11.988-11.798-38.213-9.733-37.525zM647.575 125.6c0-9.1-2-25.493-2-33.26 0-7.268 3.365-18.562 4.777-31.34 0 12.778 1.835 24.563 1.835 33.3 0 10.023-3.247 22.2-4.612 31.3z" fill="#5C3D1E"/></g><g mask="url(#c)"><g transform="translate(484 -38)"><path d="M50.015 0c6.171 74.521-4.954 153.08 0 210.92 5.225 4.908-14.173 11.7-27.555 12.143-15.997.53-16.085-8.936-13.522-10.052 8.682-22.376 11.825-69.723 12.943-112.896C18.836 87.859-1.385 69.263.075 43.982c.415-2.438 6.11.354 6.313.989-.248 7.293 6.357 29.55 12.199 29.55 1.384 0 3.354-4.156 3.677-7.096.05-.456.1-.824.152-1.11.115-16.206.044-30.29.044-40.115C27.9 16.078 38.8 9.925 50.015 0z" fill="#744D26"/><path d="M50.015 0c6.171 74.521-4.954 153.08 0 210.92 5.225 4.908-14.173 11.7-27.555 12.145 13.865-61.053 12.416-201.233 12.416-210.71C39.49 8.535 44.718 4.688 50.016 0zM4.111 43.611c1.187.476 2.193 1.1 2.277 1.36-.248 7.293 6.357 29.55 12.199 29.55 1.384 0 3.354-4.156 3.677-7.096.695-6.327.196 5.575 0 10.575-.145 3.686-6.053 1.3-10.264-5.597-5.45-8.925-9.597-29.477-7.89-28.792z" fill="#5C3D1E"/><ellipse fill="#3E2308" transform="rotate(1 43 100.5)" cx="43" cy="100.5" rx="4" ry="8.5"/><circle fill="#FFCA95" opacity=".5" transform="rotate(1 42 100)" cx="42" cy="100" r="1"/><circle fill="#FFCA95" opacity=".5" transform="rotate(1 45 100)" cx="45" cy="100" r="1"/></g></g><g mask="url(#c)"><path d="M413.378-141.5c12.8.283 40.83 31.724 43.099 51.126 2.557 21.856-4.773 47.113-10.861 59.253l-.135.255c-2.43 4.412-16.28 20.799-34.5 19.64.156 2.177.1 4.418-.535 6.606a12.706 12.706 0 013.251.288c.476.645.944 1.31 1.386 1.997 1.945-2.615 4.57-4.479 7.559-5.251l.637.325c5.384 2.795 10.627 6.962 9.168 17.886a12.692 12.692 0 01-.334 1.646l.152-.401c.378-.976.81-1.977 1.302-3.002 3.029-6.32 8.813-10.06 14.627-9.704 1.813 1.787 3.582 3.778 4.71 6.207.83-.342 1.73-.657 2.705-.944 4.035-1.187 8.715-.252 13.302 1.3a12.601 12.601 0 01.114-2.631l.548-.46c4.677-3.864 10.562-7.062 20.047-1.45 1.432.847 2.69 1.994 3.812 3.346l.348.433C496.39 2.279 499.709.066 504.828.21c5.191.146 11.472 5.792 15.978 10.367a34.87 34.87 0 01-.445-2.593c-.779-5.798 1.565-11.03 5.813-13.406l.81.176c3.698.848 7.465 2.368 9.614 6.905a10.872 10.872 0 012.718-.509c1.28-4.183 4.013-8.064 11.68-9.23 3.292-.5 6.837.654 10.267 2.323l-.328-.926c-4.93-14.102-8.074-30.496-9.888-33.093l-.554-.731c-6.19-8.273-39.294-56.631-31.987-75.494H720V1.53c-2.22 4.428-15.648 24.328-37.283 18.155-6.271-1.789-12.385-2.24-18.455-1.915 1.88 3.935 3.3 8.258 4.704 11.812l-.56.122c-5.849 1.244-13.877 1.79-23.989-4.19a19.71 19.71 0 01-2.67-1.892c-3.224 3.33-7.823 6.498-14.788 8.547-2.722.8-5.431.983-7.933.613l-.074 1.69c-.063 1.392-.126 2.738-.158 4.005l-.583-.11c-5.494-1.07-12.501-3.45-19.086-11.502a29.04 29.04 0 01-.959 1.48c-4.362 6.323-14.851 8.498-22.206 10.824-.395-2.596-.658-5.624-.262-9.037-4.378-2.264-9.053-6.05-13.105-12.957-1.856-3.164-2.703-6.557-2.582-9.736-1.842.816-3.954 1.498-6.389 1.974 2.112 3.352 3.756 7.262 5.317 10.397l-.516.163c-4.796 1.473-11.448 2.518-20.274-1.664a16.352 16.352 0 01-2.311-1.333c-1.626 3.294-3.776 6.486-5.413 9.262l-.51-.422c-2.91-2.45-6.174-5.933-8.138-11.684l-.428.258c-3.588 2.112-7.724 3.27-16.52 3.27-1.482 0-3.123-.053-4.801-.22l1.124 3.016c.274.731.544 1.443.814 2.126l-.56.122c-5.849 1.244-13.877 1.79-23.989-4.19a19.71 19.71 0 01-2.67-1.892c-3.224 3.33-7.823 6.498-14.788 8.547-4.33 1.274-8.63.982-12.11-.605-4.54 3.93-11.19 6.612-16.196 9.114l-.19-.608c-1.437-4.726-2.519-10.968.012-18.957-2.578 6.18-9.259 11.668-13.9 16.237-2.085-2.906-4.314-6.637-5.452-11.694-5.052 4.593-13.786 6.497-20.163 8.513l-.087-.6c-.722-5.164-.794-11.94 3.624-19.995-6.212.466-13.499-1.792-19.248-3.061 1.15-2.942 2.777-6.327 5.634-9.632-2.692-.456-5.386-1.198-7.711-1.706.657-1.66 1.544-3.53 2.965-5.4-12.065 1.916-24.175 5.787-37.216 7.148-10.476 1.093-40.512-9.727-45.106-12.492-12.165-7.324-18.74-48.655-21.737-53.162l-.09-.125c-7.724-9.916-7.565-65.037 31.48-71.88 20.547-3.6 78.44 1.563 108.91 2.236zM321.322-2.071c5.028 3.978 6.206 12.822 7.703 19.067-3.775.318-8.591.24-14.093-2.432-.093 4.714-1.672 9.918-2.608 14.13l-.643-.255c-3.362-1.368-7.315-3.532-10.83-7.95.96 4.522.702 9.79.81 13.997l-.526-.07c-4.794-.666-10.985-2.42-17.012-9.292l-.366-.424.117.62.218 1.203c.138.782.263 1.525.378 2.211l-.522.004c-4.843.005-8.976-.964-17.298-6.578a54.533 54.533 0 01-2.127-1.506c-4.059 5.527-12.332 9.085-18.242 12.3l-.19-.54c-1.946-5.654-3.468-13.556 1.237-24.321 2.807-6.423 8.457-10.361 14.28-10.208 2.17 1.995 4.292 4.265 5.449 7.205 2.964-.246 6.103.279 9.35 2.604 1.539 1.103 2.79 2.892 3.814 5.027.217-.99.57-1.941 1.059-2.832l.469-.17c4.324-1.541 9.268-2.419 14.495 2.528-1.444-4.607-.596-9.269 2.254-12.35 1.639-.18 3.342-.28 5.036-.069.034-.899.18-1.788.44-2.653l.595-.369c4.333-2.635 9.586-4.548 16.753 1.123zm-80.537 5.57l.238.349c2.284 3.404 4.047 7.578-.493 13.6-3.148 4.176-10.358 5.437-15.435 6.862l-.05-.474c-.39-4-.124-9.39 4.656-15.732 2.874-3.81 7.243-5.567 11.084-4.606zm-8.798-5.906l.036.658c.204 4.557-.598 9.512-8.395 12.641-5.48 2.2-13.202-.766-18.951-2.339l.326-.69c1.963-4.045 5.38-8.976 13.562-12.26 5.001-2.007 10.258-1.165 13.422 1.99z" fill="#619F29"/><path d="M565.614-17.049c-5.761-.861-11.849 2.36-15.418 8.392-6.174 10.438-5.392 18.656-4.068 24.549 7.174-2.833 17.486-5.736 21.396-12.346 5.833-9.86 2.148-15.829-1.91-20.595z" fill="#619F29"/><path d="M644 7.21c3.681-3.41 8.583-18.99 17.067-17.108l.287.07c5.928 1.576 50.233 4.108 51.995 8.646.55 4.256-.113 7.576-1.658 10.149.78.26 1.598.591 2.454.997 5.794 2.745 8.931 11.098 11.794 16.846l-.516.163c-4.796 1.473-11.448 2.518-20.274-1.664a16.352 16.352 0 01-2.311-1.333c-1.626 3.294-3.776 6.486-5.413 9.262l-.51-.422c-2.91-2.45-6.174-5.933-8.138-11.684l-.428.258c-3.516 2.07-7.558 3.223-15.999 3.268l-.522.001c-5.645 0-13.608-.755-17.086-5.755 1.241-1.144 2.4-2.661 3.668-4.223-5.28-.923-10.165-4.09-14.41-7.47zm43.727 9.986l-.302-.004.381.386-.079-.382zM604.03-13.23l.604.351c4.361 2.59 8.517 6.33 6.874 15.32-1.152 6.306-8.408 11.499-13.22 15.752l-.376-.595c-1.635-2.633-3.276-5.987-3.874-10.421-.879.48-1.87.977-2.994 1.5l-.513.236c-3.58 1.61-8.57 3.23-12.106 1.175 1.524-3.705 1.182-9.846 7.425-12.543 2.187-.946 5.365-.539 8.486.296l.021-.118c1.052-5.755 4.898-10.007 9.672-10.954z" fill="#528A1E"/><path d="M705.613 11.094c2.45 4.206 7.722 6.459 13.506 5.58 10.006-1.522 14.937-6.393 18.075-10.382-5.588-3.165-12.86-8.335-19.198-7.371-9.453 1.437-11.406 7.003-12.383 12.173z" fill="#528A1E"/><path d="M555.741-8.664c-2.154-3.322-6.547-5.018-11.248-4.19-8.133 1.432-11.995 5.444-14.42 8.71 4.684 2.421 10.817 6.415 15.968 5.508 7.683-1.353 9.084-5.86 9.7-10.028z" fill="#619F29"/></g><g mask="url(#c)" fill="#619F29"><path d="M450.921 18.923c-10.476 1.093-40.512-9.727-45.106-12.492-12.288-7.398-18.872-49.493-21.827-53.287-7.724-9.916-7.565-65.037 31.48-71.88 20.547-3.6 78.44 1.563 108.91 2.236 12.8.283 40.83 31.724 43.099 51.126 2.557 21.856-4.773 47.113-10.861 59.253-2.22 4.428-19.264 24.98-40.9 18.806-21.92-6.254-41.926 3.851-64.795 6.238z"/></g><g mask="url(#c)"><path d="M213.921 23.923c-10.476 1.093-40.512-9.727-45.106-12.492-12.288-7.398-18.872-49.493-21.827-53.287-7.724-9.916-7.565-67.302 31.48-74.144h108.91c12.806 0 40.83 36.224 43.099 55.626 2.557 21.856-4.773 47.113-10.861 59.253-2.22 4.428-19.264 24.98-40.9 18.806-21.92-6.254-41.926 3.851-64.795 6.238z" fill="#619F29"/><path d="M177.322-5.7c.057 1.357.065 2.748-.066 4.137.484.048.965.125 1.441.23l.467.645c.162.227.322.456.479.688h50.654l-1.865 11.223c4.845 5.046 6.65 14.185 8.618 20.81l-.572.074-.585.067c-5.72.627-13.295.3-22.22-5.827-3.882 5.628-11.984 9.456-17.754 12.862l-.3-.774c-1.142-3.024-2.16-6.7-2.169-11.153-4.71 5.608-14.511 7.68-21.49 9.887-.516-3.392-.806-7.521.303-12.286-4.802 2.418-10.673 3.822-15.303 5.286l-.094-.649c-.624-4.496-.747-10.207 2.147-16.916-5.807-.391-12.177-2.822-17.327-4.343l.248-.516.26-.524c2.659-5.278 7.226-11.653 17.812-15.8 6.526-2.557 13.306-1.346 17.316 2.88zM535.417-116c12.8.283 21.032 68.235-18.417 64.5-11.546-1.093-3.304 32.994-5.097 44.454 1.323.23 2.78.717 4.394 1.524 4.904 2.452 7.48 9.65 9.853 14.615l-.466.137c-4.102 1.168-9.774 1.93-17.23-1.798-.887-.443-1.7-.962-2.431-1.542l-.015.017c-3.638 4.102-11.257 4.728-16.668 5.735l-.013-.654c-.028-2.663.27-5.861 1.843-9.395-7.969 1.417-14.186 1.415-19.683.814 1.408 2.576 2.558 5.373 3.663 7.686l-.466.137c-4.102 1.168-9.774 1.93-17.23-1.798-.55-.274-1.071-.578-1.562-.908-1.256 3.261-3.215 6.493-4.645 9.246l-.419-.312c-3.164-2.399-6.855-6.097-8.563-13.203a17.85 17.85 0 01-2.703 1.918c-4.727 2.778-12.167 1.018-17.624.304l.164-.545c1.055-3.398 2.95-7.542 7.718-11.262-3.589-1.331-7.168-3.706-10.177-5.406.784-.992 1.7-2.048 2.817-3.078-2.436.291-4.887.411-7.012.617.128-2.21.473-4.813 1.628-7.627-2.436 1.422-5.144 2.567-7.358 3.664-.942-2.882-1.77-6.642-.722-11.386-2.72.203-5.43.172-8.127-.045-.272 3.07-1.089 6.259-1.592 8.935l-.466-.163c-3.766-1.352-8.491-3.855-12.104-10.622a13.05 13.05 0 01-.428-.878l-.208-.056c-.133.25-.278.503-.432.76-2.599 4.343-9.397 6.083-14.13 7.838l-.118-.576c-.631-3.222-.914-7.386 1.183-12.399l-5.067-1.804c-.84-.297-1.677-.593-2.512-.884-.06 3.21-.753 6.615-1.133 9.44l-.589-.173c-2.783-.85-6.09-2.29-9.198-5.537-.724 2.734-1.74 5.442-2.479 7.794-3.204-1.585-7.128-4.092-10.098-9.515-.248 1.594-.54 3.142-.75 4.542-2.285-.707-5.004-1.816-7.641-4.18.116.726.182 1.52.192 2.39.055 4.807-4.544 9.669-7.478 13.489-1.123-1.17-2.33-2.599-3.353-4.44-1.425 4.153-4.562 8.291-6.755 11.721a29.155 29.155 0 01-2.623-2.566c.034 3.433-.485 7.038-.727 10.054-3.872-.899-8.807-2.645-13.348-8.048-.255.193-.51.384-.766.574 2.931 2.7 4.653 7.558 6.27 11.086-2.35.651-5.35 1.183-9.052.373 2.373 3.84 3.475 9.162 4.67 13.216l-.534.07c-4.144.518-9.628.46-16.075-3.541.034 1.867.011 3.689.052 5.33l-.582-.077c-3.633-.508-8.141-1.719-12.694-5.755-2.541 2.227-5.54 4.164-7.933 5.93l-.274-.526c-1.684-3.3-3.291-7.744-2.542-13.882-3.624 2.227-7.776 3.987-11.13 5.66l-.2-.642c-1.22-4.024-2.15-9.23-.469-15.775l-.136-.145c-4.412 2.277-10.806 2.187-15.61 2.558.148-2.088.482-4.504 1.442-7.102-2.681-2.733-5.228-6.674-6.41-12.842-.301-1.57-.338-3.106-.138-4.549-1.498 2.032-3.13 3.953-4.469 5.693l-.391-.412c-2.626-2.809-5.516-6.823-6.386-13.34-4.79 2.051-11.614.84-16.737.43.677-2.919 1.836-6.441 4.68-9.944-29.49-7.862-41.374-57.92-7.14-63.919l1.586.017c30.984.266 307.231.26 337.37-.017z" fill="#528A1E"/></g><g mask="url(#c)"><path d="M-44.378-99.5c-12.8.283-40.83 31.724-43.099 51.126-2.557 21.856 4.773 47.113 10.861 59.253 2.22 4.428 19.264 24.98 40.9 18.806 6.27-1.789 12.384-2.24 18.454-1.915-1.88 3.935-3.3 8.258-4.704 11.812l.56.122c5.849 1.244 13.877 1.79 23.989-4.19a19.71 19.71 0 002.67-1.892c3.224 3.33 7.823 6.498 14.788 8.547 2.722.8 5.431.983 7.933.613l.074 1.69c.063 1.392.126 2.738.158 4.005l.583-.11c5.494-1.07 12.501-3.45 19.086-11.502.293.484.612.978.959 1.48 4.362 6.323 14.851 8.498 22.206 10.824.395-2.596.658-5.624.262-9.037 4.378-2.264 9.053-6.05 13.105-12.957 1.352-2.305 2.17-4.733 2.466-7.11 4.453 2.463 9.771 4.157 14 5.827.865-3.856 1.5-8.707.105-14.524 5.147.894 11.27-3.094 15.95-5.512l-.287-.38c-2.442-3.19-6.314-6.953-14.134-8.33-2.91-.512-5.703-.058-7.92 1.152-1.638-1.843-3.552-3.264-5.596-4.197l.417-1.444c3.063-10.716 5.179-20.473 6.544-22.43l.06-.083c7.724-9.916 7.565-65.037-31.48-71.88-20.547-3.6-78.44 1.563-108.91 2.236z" fill="#619F29"/><path d="M41.703-12.104c-1.912 1.09-3.833 2.364-5.295 4.166-1.64.35-3.435 1.054-5.416 2.214-5.532 3.24-7.93 11.834-10.281 17.81l.568.126c4.227.9 9.793 1.355 16.634-1.69 2.807 3.302 6.617 6.222 9.53 8.798 1.853-2.874 3.82-6.647 4.35-11.847.461.761 1.068 1.507 1.856 2.225 3.242 2.958 11.156 2.672 15.674 2.473l-.091-.444c-.694-3.223-1.946-5.876-6.717-10.543l-.33-.322c-2.86-2.76-7.264-6.272-11.473-5.44.019.311.021.634.013.965-1.567-4.484-4.958-7.685-9.022-8.491zM10.47-4.614c3.048 3.794 3.262 9.523.368 14.607C5.83 18.79-.483 21.648-5.332 23.148c-.951-6.351-3.172-14.993-.001-20.565 4.73-8.31 10.626-8.138 15.803-7.197z" fill="#528A1E"/></g></g></svg>